<svg xmlns="http://www.w3.org/2000/svg" xmlns:xlink="http://www.w3.org/1999/xlink" width="500" zoomAndPan="magnify" viewBox="0 0 375 374.999991" height="500" preserveAspectRatio="xMidYMid meet" version="1.0"><defs><g/><clipPath id="8245508246"><path d="M 187.5 0 C 83.945312 0 0 83.945312 0 187.5 C 0 291.054688 83.945312 375 187.5 375 C 291.054688 375 375 291.054688 375 187.5 C 375 83.945312 291.054688 0 187.5 0 " clip-rule="nonzero"/></clipPath></defs><path fill="#171717" d="M 187.5 0 C 83.945312 0 0 83.945312 0 187.5 C 0 291.054688 83.945312 375 187.5 375 C 291.054688 375 375 291.054688 375 187.5 C 375 83.945312 291.054688 0 187.5 0 " fill-opacity="1" fill-rule="nonzero"/><g clip-path="url(#8245508246)"><path stroke-linecap="butt" transform="matrix(0.75, 0, 0, 0.75, 0.0000045, 0)" fill="none" stroke-linejoin="miter" d="M 249.999994 0 C 111.927078 0 -0.000006 111.927084 -0.000006 250 C -0.000006 388.072917 111.927078 500.000001 249.999994 500.000001 C 388.072911 500.000001 499.999995 388.072917 499.999995 250 C 499.999995 111.927084 388.072911 0 249.999994 0 " stroke="#404040" stroke-width="30" stroke-opacity="1" stroke-miterlimit="4"/></g><g fill="#f5f5f5" fill-opacity="1"><g transform="translate(74.009764, 283.874981)"><g><path d="M 213.671875 -183.921875 C 215.054688 -181.316406 215.878906 -178.96875 216.140625 -176.875 C 216.410156 -174.789062 216.546875 -171.75 216.546875 -167.75 L 216.546875 -22.953125 C 216.546875 -10.953125 213.238281 -3.910156 206.625 -1.828125 C 203.320312 -0.785156 199.144531 -0.265625 194.09375 -0.265625 C 189.050781 -0.265625 185.050781 -0.695312 182.09375 -1.5625 C 179.144531 -2.4375 176.882812 -3.476562 175.3125 -4.6875 C 173.75 -5.90625 172.535156 -7.644531 171.671875 -9.90625 C 170.796875 -12.863281 170.359375 -17.390625 170.359375 -23.484375 L 170.359375 -110.875 C 166.015625 -105.488281 159.664062 -96.925781 151.3125 -85.1875 C 142.96875 -73.445312 137.664062 -66.097656 135.40625 -63.140625 C 133.144531 -60.179688 131.578125 -58.132812 130.703125 -57 C 129.835938 -55.875 127.707031 -54.3125 124.3125 -52.3125 C 120.925781 -50.3125 117.273438 -49.3125 113.359375 -49.3125 C 109.441406 -49.3125 105.875 -50.222656 102.65625 -52.046875 C 99.4375 -53.867188 97.132812 -55.648438 95.75 -57.390625 L 93.65625 -60.265625 C 90.175781 -64.609375 83.304688 -73.867188 73.046875 -88.046875 C 62.785156 -102.222656 57.222656 -109.832031 56.359375 -110.875 L 56.359375 -22.953125 C 56.359375 -18.953125 56.222656 -15.953125 55.953125 -13.953125 C 55.691406 -11.953125 54.867188 -9.738281 53.484375 -7.3125 C 50.867188 -2.613281 44.085938 -0.265625 33.140625 -0.265625 C 22.523438 -0.265625 15.914062 -2.613281 13.3125 -7.3125 C 11.914062 -9.738281 11.085938 -11.992188 10.828125 -14.078125 C 10.566406 -16.171875 10.4375 -19.304688 10.4375 -23.484375 L 10.4375 -168.28125 C 10.4375 -172.28125 10.566406 -175.28125 10.828125 -177.28125 C 11.085938 -179.28125 11.914062 -181.582031 13.3125 -184.1875 C 15.914062 -188.707031 22.695312 -190.96875 33.65625 -190.96875 C 38.351562 -190.96875 42.394531 -190.398438 45.78125 -189.265625 C 49.175781 -188.140625 51.394531 -186.96875 52.4375 -185.75 L 54 -184.1875 L 113.234375 -106.4375 C 142.796875 -145.570312 162.535156 -171.398438 172.453125 -183.921875 C 175.410156 -188.617188 182.410156 -190.96875 193.453125 -190.96875 C 204.492188 -190.96875 211.234375 -188.617188 213.671875 -183.921875 Z M 213.671875 -183.921875 "/></g></g></g></svg>